<?xml version="1.0" encoding="utf-8"?>
<!-- Generator: Adobe Illustrator 22.0.0, SVG Export Plug-In . SVG Version: 6.00 Build 0)  -->
<svg version="1.1" id="Layer_1" xmlns="http://www.w3.org/2000/svg" xmlns:xlink="http://www.w3.org/1999/xlink" x="0px" y="0px"
	 viewBox="0 0 41.5 28.3" style="enable-background:new 0 0 41.5 28.3;" xml:space="preserve">
<style type="text/css">
	.st0{fill:#FFFFFF;}
</style>
<path class="st0" d="M26,12.3c0.1,0.7,0.1,1.3,0.1,2.2c0,7.4-4.9,12.7-12.4,12.7c-7.2,0-13-5.8-13-13s5.8-13,13-13
	c3.5,0,6.3,1.3,8.7,3.3l-3.5,3.3c-1-0.9-2.6-2-5.2-2c-4.5,0-8.1,3.6-8.1,8.2s3.6,8.2,8.1,8.2c5,0,7.1-3.7,7.4-5.6h-7.4v-4.5L26,12.3
	L26,12.3z M37,12.8V9h-3.7v3.7h-3.7v3.7h3.7v3.7H37v-3.7h3.7v-3.7L37,12.8L37,12.8z"/>
</svg>
